<svg width="20" height="20" viewBox="0 0 20 20" fill="none" xmlns="http://www.w3.org/2000/svg">
<path d="M10 0.000335693C7.34774 0.000335693 4.80423 1.05389 2.92889 2.92923C1.05355 4.80479 0 7.34835 0 10.0003C0 12.6523 1.05355 15.1961 2.92889 17.0714C4.80446 18.9468 7.34801 20.0003 10 20.0003C12.652 20.0003 15.1958 18.9468 17.0711 17.0714C18.9464 15.1959 20 12.6523 20 10.0003C20 8.24486 19.5379 6.52036 18.6602 5.00006C17.7826 3.4798 16.5202 2.21743 14.9999 1.33978C13.4797 0.462126 11.7555 0.000335693 10 0.000335693ZM10 18.751C7.67928 18.751 5.45359 17.8291 3.81229 16.188C2.171 14.547 1.24937 12.3213 1.24937 10.0003C1.24937 7.67933 2.17128 5.45392 3.81229 3.81263C5.45331 2.17133 7.679 1.24971 10 1.24971C12.321 1.24971 14.5464 2.17161 16.1877 3.81263C17.829 5.45364 18.7506 7.67933 18.7506 10.0003C18.7506 12.3213 17.8287 14.5467 16.1877 16.188C14.5467 17.8293 12.321 18.751 10 18.751ZM15.2283 6.0223C15.3504 6.135 15.4225 6.29152 15.4291 6.45741C15.4354 6.6233 15.3757 6.78505 15.2627 6.90669L9.16544 13.4694C9.04925 13.5948 8.88663 13.6671 8.71551 13.6693C8.54591 13.6695 8.38329 13.6009 8.26558 13.4788L5.08098 10.2067C4.95586 10.0903 4.88414 9.92749 4.88218 9.75659C4.88022 9.58568 4.94823 9.42154 5.07074 9.30208C5.19303 9.18284 5.35892 9.11875 5.52983 9.12486C5.70051 9.13118 5.86139 9.20704 5.97475 9.33478L8.69677 12.1285L14.3471 6.05353C14.5823 5.80219 14.9761 5.7884 15.2283 6.0223Z" fill="#08A741"/>
</svg>
