<svg width="20" height="20" viewBox="0 0 550 498" fill="none" xmlns="http://www.w3.org/2000/svg">
<path d="M528.863 224.39C528.863 364.779 415.057 478.585 274.668 478.585C134.279 478.585 20.4733 364.779 20.4733 224.39C20.4733 84.001 134.279 -29.805 274.668 -29.805C415.057 -29.805 528.863 84.001 528.863 224.39" stroke="#CD0707" stroke-width="40.343" stroke-miterlimit="10"/>
<path d="M135.173 377.053C124.527 367.283 123.647 350.6 133.527 339.955L377.181 73.3547C386.952 62.7088 403.634 61.8287 414.279 71.7088C424.925 81.4796 425.805 98.1621 415.925 108.807L172.272 375.407C162.611 386.053 145.819 386.715 135.173 377.053Z" fill="#CD0707"/>
<path d="M135.173 71.72C124.527 81.4908 123.647 98.1733 133.527 108.819L377.181 375.419C386.952 386.065 403.634 386.945 414.279 377.065C424.925 367.294 425.805 350.611 415.925 339.966L172.272 73.3659C162.611 62.6107 145.819 61.9492 135.173 71.72V71.72Z" fill="#CD0707"/>
</svg>
